<svg id="a9e04886-45f6-475b-9477-9b2089653ffe" data-name="Ebene 1" xmlns="http://www.w3.org/2000/svg"
     viewBox="0 0 414.17 99.35"><defs><clipPath id="f3ed8fab-ee0f-46e3-9526-065125669f09"><rect width="414.17" height="99.35" style="fill:none"/></clipPath></defs><title>79444_logo_web</title><path d="M14.91,65.9V33.44L43,17.22l28.1,16.22V65.9L43,82.13ZM43,0,0,24.84V74.51L43,99.35,86,74.51V24.84Z" style="fill:#004986"/><polygon points="57.21 41.48 57.21 57.87 43.02 66.07 28.82 57.87 28.82 41.48 43.02 33.28 57.21 41.48" style="fill:#ff9e1b"/><g style="clip-path:url(#f3ed8fab-ee0f-46e3-9526-065125669f09)"><path d="M414.17,74.2,401.08,50.75,413.19,36.4h-7.7L389.88,55.86V23.1h-6.3V74.2h6.3V64.05L397,55.58,407.17,74.2Zm-58.59,0H362v-28c3.43-2.1,6.58-3.71,11.06-3.71h3.36V36.4h-2.8C368,36.4,365,39,362,42V36.4h-6.37Zm-29.82-5.67c-2.66,0-3.78-1.12-3.78-3.78V45.85c0-2.66,1.12-3.78,3.78-3.78h9.87c2.73,0,3.78,1.12,3.78,3.78v18.9c0,2.66-1.05,3.78-3.78,3.78ZM325,74.2h11.48c6.37,0,9.38-3,9.38-9.38v-19c0-6.37-3-9.38-9.38-9.38H325c-6.37,0-9.38,3-9.38,9.38v19c0,6.37,3,9.38,9.38,9.38m-61.11,0h7.35l10.22-38,10.22,38h7.07l12.95-49h-6.93l-9.52,40.39L284.39,25.2h-5.88L267.66,65.59,258.14,25.2H251Zm-33.4-17h16.71V51H230.48ZM201.77,85.4h6.09l17.92-49h-6.51L208.91,66.85,198.83,36.4h-6.72l13.58,37.8ZM167.54,41.79H177c2.73,0,3.78,1.12,3.78,3.78v6.51h-17V45.57c0-2.66,1.12-3.78,3.78-3.78m19.6,15.05V45.78c0-6.37-3-9.38-9.38-9.38h-11c-6.37,0-9.38,3-9.38,9.38v19c0,6.37,3,9.38,9.38,9.38h11c6.37,0,9.38-3,9.38-9.38V62.23h-6.37V65c0,2.66-1.12,3.78-3.78,3.78h-9.45c-2.66,0-3.78-1.12-3.78-3.78V56.84ZM153.68,74.2,135.55,44.8l16.8-19.6h-8L121.69,52V25.2H115v49h6.72V61l9.38-10.92L146,74.2Z" style="fill:#004986"/></g></svg>
